<mxfile host="app.diagrams.net" modified="2023-09-14T03:34:34.704Z" agent="Mozilla/5.0 (X11; Linux x86_64; rv:109.0) Gecko/20100101 Firefox/117.0" etag="EbxZKwWLYQRk-FdFqHQr" version="21.7.5" type="github">
  <diagram id="C5RBs43oDa-KdzZeNtuy" name="Page-1">
    <mxGraphModel dx="1235" dy="796" grid="1" gridSize="10" guides="1" tooltips="1" connect="1" arrows="1" fold="1" page="1" pageScale="1" pageWidth="1169" pageHeight="827" math="0" shadow="0">
      <root>
        <mxCell id="WIyWlLk6GJQsqaUBKTNV-0" />
        <mxCell id="WIyWlLk6GJQsqaUBKTNV-1" parent="WIyWlLk6GJQsqaUBKTNV-0" />
        <mxCell id="3IIIUZGroqZlX2lE0kyG-9" value="" style="edgeStyle=orthogonalEdgeStyle;rounded=0;orthogonalLoop=1;jettySize=auto;html=1;entryX=0.5;entryY=0;entryDx=0;entryDy=0;fontFamily=Courier New;fontSize=10;" edge="1" parent="WIyWlLk6GJQsqaUBKTNV-1" target="3IIIUZGroqZlX2lE0kyG-24">
          <mxGeometry relative="1" as="geometry">
            <mxPoint x="463" y="70" as="sourcePoint" />
          </mxGeometry>
        </mxCell>
        <mxCell id="3IIIUZGroqZlX2lE0kyG-12" style="edgeStyle=orthogonalEdgeStyle;rounded=0;orthogonalLoop=1;jettySize=auto;html=1;entryX=0.5;entryY=0;entryDx=0;entryDy=0;fontFamily=Courier New;fontSize=10;" edge="1" parent="WIyWlLk6GJQsqaUBKTNV-1" source="WIyWlLk6GJQsqaUBKTNV-6" target="WIyWlLk6GJQsqaUBKTNV-10">
          <mxGeometry relative="1" as="geometry" />
        </mxCell>
        <mxCell id="3IIIUZGroqZlX2lE0kyG-13" style="edgeStyle=orthogonalEdgeStyle;rounded=0;orthogonalLoop=1;jettySize=auto;html=1;entryX=0.5;entryY=0;entryDx=0;entryDy=0;fontFamily=Courier New;fontSize=10;" edge="1" parent="WIyWlLk6GJQsqaUBKTNV-1" source="WIyWlLk6GJQsqaUBKTNV-6" target="3IIIUZGroqZlX2lE0kyG-35">
          <mxGeometry relative="1" as="geometry">
            <mxPoint x="673" y="400" as="targetPoint" />
          </mxGeometry>
        </mxCell>
        <mxCell id="WIyWlLk6GJQsqaUBKTNV-6" value="number &amp;lt; 0" style="rhombus;whiteSpace=wrap;html=1;shadow=0;fontFamily=Courier New;fontSize=10;align=center;strokeWidth=1;spacing=6;spacingTop=-4;" parent="WIyWlLk6GJQsqaUBKTNV-1" vertex="1">
          <mxGeometry x="413" y="310" width="100" height="80" as="geometry" />
        </mxCell>
        <mxCell id="WIyWlLk6GJQsqaUBKTNV-9" value="Yes" style="edgeStyle=orthogonalEdgeStyle;html=1;jettySize=auto;orthogonalLoop=1;fontSize=10;endArrow=classic;endFill=1;endSize=8;strokeWidth=1;shadow=0;labelBackgroundColor=none;fontFamily=Courier New;labelBorderColor=none;rounded=0;entryX=0.5;entryY=0;entryDx=0;entryDy=0;" parent="WIyWlLk6GJQsqaUBKTNV-1" source="WIyWlLk6GJQsqaUBKTNV-10" target="3IIIUZGroqZlX2lE0kyG-22" edge="1">
          <mxGeometry x="-0.2343" y="10" relative="1" as="geometry">
            <mxPoint as="offset" />
            <mxPoint x="373" y="460" as="targetPoint" />
          </mxGeometry>
        </mxCell>
        <mxCell id="3IIIUZGroqZlX2lE0kyG-19" style="edgeStyle=orthogonalEdgeStyle;rounded=0;orthogonalLoop=1;jettySize=auto;html=1;entryX=1;entryY=0.5;entryDx=0;entryDy=0;fontFamily=Courier New;fontSize=10;" edge="1" parent="WIyWlLk6GJQsqaUBKTNV-1" source="WIyWlLk6GJQsqaUBKTNV-10" target="WIyWlLk6GJQsqaUBKTNV-11">
          <mxGeometry relative="1" as="geometry" />
        </mxCell>
        <mxCell id="3IIIUZGroqZlX2lE0kyG-21" value="&lt;div style=&quot;font-size: 10px;&quot;&gt;No&lt;/div&gt;" style="edgeLabel;html=1;align=center;verticalAlign=middle;resizable=0;points=[];fontSize=10;fontFamily=Courier New;" vertex="1" connectable="0" parent="3IIIUZGroqZlX2lE0kyG-19">
          <mxGeometry x="-0.28" relative="1" as="geometry">
            <mxPoint y="-10" as="offset" />
          </mxGeometry>
        </mxCell>
        <mxCell id="WIyWlLk6GJQsqaUBKTNV-10" value="number &amp;gt;= -2" style="rhombus;whiteSpace=wrap;html=1;shadow=0;fontFamily=Courier New;fontSize=10;align=center;strokeWidth=1;spacing=6;spacingTop=-4;" parent="WIyWlLk6GJQsqaUBKTNV-1" vertex="1">
          <mxGeometry x="203" y="420" width="100" height="80" as="geometry" />
        </mxCell>
        <mxCell id="3IIIUZGroqZlX2lE0kyG-15" style="edgeStyle=orthogonalEdgeStyle;rounded=0;orthogonalLoop=1;jettySize=auto;html=1;entryX=0.5;entryY=1;entryDx=0;entryDy=0;fontFamily=Courier New;fontSize=10;" edge="1" parent="WIyWlLk6GJQsqaUBKTNV-1" source="WIyWlLk6GJQsqaUBKTNV-11" target="WIyWlLk6GJQsqaUBKTNV-10">
          <mxGeometry relative="1" as="geometry">
            <mxPoint x="92.99999999999989" y="640" as="targetPoint" />
            <Array as="points">
              <mxPoint x="93" y="560" />
              <mxPoint x="253" y="560" />
            </Array>
          </mxGeometry>
        </mxCell>
        <mxCell id="WIyWlLk6GJQsqaUBKTNV-11" value="number = number + 2" style="rounded=1;whiteSpace=wrap;html=1;fontSize=10;glass=0;strokeWidth=1;shadow=0;fontFamily=Courier New;arcSize=0;" parent="WIyWlLk6GJQsqaUBKTNV-1" vertex="1">
          <mxGeometry x="33" y="440" width="120" height="40" as="geometry" />
        </mxCell>
        <mxCell id="3IIIUZGroqZlX2lE0kyG-4" value="" style="edgeStyle=orthogonalEdgeStyle;rounded=0;orthogonalLoop=1;jettySize=auto;html=1;fontFamily=Courier New;fontSize=10;" edge="1" parent="WIyWlLk6GJQsqaUBKTNV-1" source="3IIIUZGroqZlX2lE0kyG-0" target="WIyWlLk6GJQsqaUBKTNV-6">
          <mxGeometry relative="1" as="geometry" />
        </mxCell>
        <mxCell id="3IIIUZGroqZlX2lE0kyG-0" value="input(number)" style="shape=parallelogram;perimeter=parallelogramPerimeter;whiteSpace=wrap;html=1;fixedSize=1;fontFamily=Courier New;fontSize=10;" vertex="1" parent="WIyWlLk6GJQsqaUBKTNV-1">
          <mxGeometry x="403" y="220" width="120" height="60" as="geometry" />
        </mxCell>
        <mxCell id="3IIIUZGroqZlX2lE0kyG-31" style="edgeStyle=orthogonalEdgeStyle;rounded=0;orthogonalLoop=1;jettySize=auto;html=1;entryX=0.5;entryY=0;entryDx=0;entryDy=0;fontFamily=Courier New;fontSize=10;" edge="1" parent="WIyWlLk6GJQsqaUBKTNV-1" source="3IIIUZGroqZlX2lE0kyG-22" target="3IIIUZGroqZlX2lE0kyG-30">
          <mxGeometry relative="1" as="geometry" />
        </mxCell>
        <mxCell id="3IIIUZGroqZlX2lE0kyG-32" value="&lt;font style=&quot;font-size: 10px;&quot;&gt;Yes&lt;/font&gt;" style="edgeLabel;html=1;align=center;verticalAlign=middle;resizable=0;points=[];fontFamily=Courier New;fontSize=10;" vertex="1" connectable="0" parent="3IIIUZGroqZlX2lE0kyG-31">
          <mxGeometry x="0.0336" y="-1" relative="1" as="geometry">
            <mxPoint x="-35" y="-21" as="offset" />
          </mxGeometry>
        </mxCell>
        <mxCell id="3IIIUZGroqZlX2lE0kyG-22" value="number = 0" style="rhombus;whiteSpace=wrap;html=1;shadow=0;fontFamily=Courier New;fontSize=10;align=center;strokeWidth=1;spacing=6;spacingTop=-4;" vertex="1" parent="WIyWlLk6GJQsqaUBKTNV-1">
          <mxGeometry x="413" y="490" width="100" height="80" as="geometry" />
        </mxCell>
        <mxCell id="3IIIUZGroqZlX2lE0kyG-25" style="edgeStyle=orthogonalEdgeStyle;rounded=0;orthogonalLoop=1;jettySize=auto;html=1;fontFamily=Courier New;fontSize=10;" edge="1" parent="WIyWlLk6GJQsqaUBKTNV-1" source="3IIIUZGroqZlX2lE0kyG-24" target="3IIIUZGroqZlX2lE0kyG-0">
          <mxGeometry relative="1" as="geometry" />
        </mxCell>
        <mxCell id="3IIIUZGroqZlX2lE0kyG-24" value="" style="verticalLabelPosition=bottom;verticalAlign=top;html=1;shape=hexagon;perimeter=hexagonPerimeter2;arcSize=6;size=0.19158878504672897;fontFamily=Courier New;fontSize=10;" vertex="1" parent="WIyWlLk6GJQsqaUBKTNV-1">
          <mxGeometry x="409.5" y="110" width="107" height="70" as="geometry" />
        </mxCell>
        <mxCell id="3IIIUZGroqZlX2lE0kyG-27" value="&lt;font style=&quot;font-size: 10px;&quot;&gt;number = 0&lt;br style=&quot;font-size: 10px;&quot;&gt;&lt;/font&gt;" style="text;html=1;align=center;verticalAlign=middle;resizable=0;points=[];autosize=1;strokeColor=none;fillColor=none;fontFamily=Courier New;fontSize=10;" vertex="1" parent="WIyWlLk6GJQsqaUBKTNV-1">
          <mxGeometry x="423" y="130" width="80" height="30" as="geometry" />
        </mxCell>
        <mxCell id="3IIIUZGroqZlX2lE0kyG-41" style="edgeStyle=orthogonalEdgeStyle;rounded=0;orthogonalLoop=1;jettySize=auto;html=1;entryX=0;entryY=0.5;entryDx=0;entryDy=0;entryPerimeter=0;" edge="1" parent="WIyWlLk6GJQsqaUBKTNV-1" source="3IIIUZGroqZlX2lE0kyG-29" target="3IIIUZGroqZlX2lE0kyG-40">
          <mxGeometry relative="1" as="geometry">
            <Array as="points">
              <mxPoint x="330" y="770" />
            </Array>
          </mxGeometry>
        </mxCell>
        <mxCell id="3IIIUZGroqZlX2lE0kyG-29" value="&lt;font style=&quot;font-size: 10px;&quot;&gt;cetak(&quot;ganjil&quot;)&lt;/font&gt;" style="shape=parallelogram;perimeter=parallelogramPerimeter;whiteSpace=wrap;html=1;fixedSize=1;fontFamily=Courier New;fontSize=10;" vertex="1" parent="WIyWlLk6GJQsqaUBKTNV-1">
          <mxGeometry x="260" y="620" width="140" height="70" as="geometry" />
        </mxCell>
        <mxCell id="3IIIUZGroqZlX2lE0kyG-42" style="edgeStyle=orthogonalEdgeStyle;rounded=0;orthogonalLoop=1;jettySize=auto;html=1;entryX=1;entryY=0.5;entryDx=0;entryDy=0;entryPerimeter=0;" edge="1" parent="WIyWlLk6GJQsqaUBKTNV-1" source="3IIIUZGroqZlX2lE0kyG-30" target="3IIIUZGroqZlX2lE0kyG-40">
          <mxGeometry relative="1" as="geometry">
            <Array as="points">
              <mxPoint x="590" y="770" />
            </Array>
          </mxGeometry>
        </mxCell>
        <mxCell id="3IIIUZGroqZlX2lE0kyG-30" value="&lt;font style=&quot;font-size: 10px;&quot;&gt;cetak(&quot;genap&quot;)&lt;/font&gt;" style="shape=parallelogram;perimeter=parallelogramPerimeter;whiteSpace=wrap;html=1;fixedSize=1;fontFamily=Courier New;fontSize=10;" vertex="1" parent="WIyWlLk6GJQsqaUBKTNV-1">
          <mxGeometry x="516.5" y="620" width="140" height="70" as="geometry" />
        </mxCell>
        <mxCell id="3IIIUZGroqZlX2lE0kyG-33" style="edgeStyle=orthogonalEdgeStyle;rounded=0;orthogonalLoop=1;jettySize=auto;html=1;entryX=0.536;entryY=0.004;entryDx=0;entryDy=0;entryPerimeter=0;exitX=0;exitY=0.5;exitDx=0;exitDy=0;fontFamily=Courier New;fontSize=10;" edge="1" parent="WIyWlLk6GJQsqaUBKTNV-1" source="3IIIUZGroqZlX2lE0kyG-22" target="3IIIUZGroqZlX2lE0kyG-29">
          <mxGeometry relative="1" as="geometry">
            <mxPoint x="260" y="530" as="sourcePoint" />
            <mxPoint x="334" y="620" as="targetPoint" />
          </mxGeometry>
        </mxCell>
        <mxCell id="3IIIUZGroqZlX2lE0kyG-34" value="No" style="edgeLabel;html=1;align=center;verticalAlign=middle;resizable=0;points=[];fontFamily=Courier New;fontSize=10;" vertex="1" connectable="0" parent="3IIIUZGroqZlX2lE0kyG-33">
          <mxGeometry x="0.0336" y="-1" relative="1" as="geometry">
            <mxPoint x="46" y="-21" as="offset" />
          </mxGeometry>
        </mxCell>
        <mxCell id="3IIIUZGroqZlX2lE0kyG-45" style="edgeStyle=orthogonalEdgeStyle;rounded=0;orthogonalLoop=1;jettySize=auto;html=1;entryX=0.5;entryY=0;entryDx=0;entryDy=0;" edge="1" parent="WIyWlLk6GJQsqaUBKTNV-1" source="3IIIUZGroqZlX2lE0kyG-35" target="3IIIUZGroqZlX2lE0kyG-22">
          <mxGeometry relative="1" as="geometry" />
        </mxCell>
        <mxCell id="3IIIUZGroqZlX2lE0kyG-50" value="&lt;font face=&quot;Courier New&quot; style=&quot;font-size: 10px;&quot;&gt;Yes&lt;/font&gt;" style="edgeLabel;html=1;align=center;verticalAlign=middle;resizable=0;points=[];" vertex="1" connectable="0" parent="3IIIUZGroqZlX2lE0kyG-45">
          <mxGeometry x="-0.4892" y="1" relative="1" as="geometry">
            <mxPoint x="-17" y="-11" as="offset" />
          </mxGeometry>
        </mxCell>
        <mxCell id="3IIIUZGroqZlX2lE0kyG-47" style="edgeStyle=orthogonalEdgeStyle;rounded=0;orthogonalLoop=1;jettySize=auto;html=1;entryX=0;entryY=0.5;entryDx=0;entryDy=0;" edge="1" parent="WIyWlLk6GJQsqaUBKTNV-1" source="3IIIUZGroqZlX2lE0kyG-35" target="3IIIUZGroqZlX2lE0kyG-46">
          <mxGeometry relative="1" as="geometry" />
        </mxCell>
        <mxCell id="3IIIUZGroqZlX2lE0kyG-49" value="&lt;font style=&quot;font-size: 10px;&quot; face=&quot;Courier New&quot;&gt;No&lt;/font&gt;" style="edgeLabel;html=1;align=center;verticalAlign=middle;resizable=0;points=[];" vertex="1" connectable="0" parent="3IIIUZGroqZlX2lE0kyG-47">
          <mxGeometry x="-0.26" y="-1" relative="1" as="geometry">
            <mxPoint y="-11" as="offset" />
          </mxGeometry>
        </mxCell>
        <mxCell id="3IIIUZGroqZlX2lE0kyG-35" value="number &amp;gt;= -2" style="rhombus;whiteSpace=wrap;html=1;shadow=0;fontFamily=Courier New;fontSize=10;align=center;strokeWidth=1;spacing=6;spacingTop=-4;" vertex="1" parent="WIyWlLk6GJQsqaUBKTNV-1">
          <mxGeometry x="600" y="420" width="100" height="80" as="geometry" />
        </mxCell>
        <mxCell id="3IIIUZGroqZlX2lE0kyG-39" value="Start" style="strokeWidth=2;html=1;shape=mxgraph.flowchart.terminator;whiteSpace=wrap;fontFamily=Courier New;fontSize=10;" vertex="1" parent="WIyWlLk6GJQsqaUBKTNV-1">
          <mxGeometry x="413" y="10" width="100" height="60" as="geometry" />
        </mxCell>
        <mxCell id="3IIIUZGroqZlX2lE0kyG-40" value="End" style="strokeWidth=2;html=1;shape=mxgraph.flowchart.terminator;whiteSpace=wrap;fontFamily=Courier New;fontSize=10;" vertex="1" parent="WIyWlLk6GJQsqaUBKTNV-1">
          <mxGeometry x="413" y="740" width="100" height="60" as="geometry" />
        </mxCell>
        <mxCell id="3IIIUZGroqZlX2lE0kyG-51" style="edgeStyle=orthogonalEdgeStyle;rounded=0;orthogonalLoop=1;jettySize=auto;html=1;entryX=0.5;entryY=1;entryDx=0;entryDy=0;" edge="1" parent="WIyWlLk6GJQsqaUBKTNV-1" source="3IIIUZGroqZlX2lE0kyG-46" target="3IIIUZGroqZlX2lE0kyG-35">
          <mxGeometry relative="1" as="geometry">
            <Array as="points">
              <mxPoint x="800" y="560" />
              <mxPoint x="650" y="560" />
            </Array>
          </mxGeometry>
        </mxCell>
        <mxCell id="3IIIUZGroqZlX2lE0kyG-46" value="number = number + 2" style="rounded=1;whiteSpace=wrap;html=1;fontSize=10;glass=0;strokeWidth=1;shadow=0;fontFamily=Courier New;arcSize=0;" vertex="1" parent="WIyWlLk6GJQsqaUBKTNV-1">
          <mxGeometry x="740" y="440" width="120" height="40" as="geometry" />
        </mxCell>
      </root>
    </mxGraphModel>
  </diagram>
</mxfile>
